<svg class="svg-fluid"  xmlns="http://www.w3.org/2000/svg" xml:space="preserve" width="672.023mm" height="180.725mm" version="1.1" style="shape-rendering:geometricPrecision; text-rendering:geometricPrecision; image-rendering:optimizeQuality; fill-rule:evenodd; clip-rule:evenodd"
viewBox="0 0 34719 9337" xmlns:xlink="http://www.w3.org/1999/xlink">
 <defs>
  <style type="text/css">
   <![CDATA[
    .fil1 {fill:#fff}
    .fil0 {fill:#fff;fill-rule:nonzero}
   ]]>
  </style>
 </defs>
 <g id="Слой_x0020_1">
  <metadata id="CorelCorpID_0Corel-Layer"/>
  <g id="_2499459565952">
   <path class="fil0" d="M2386 1198c154,-413 356,-716 605,-909 248,-193 579,-289 993,-289 413,0 741,93 983,279 241,185 439,492 594,919l2396 6402 -2954 0 -283 -852 -1998 0 -283 852 -2439 0 2386 -6402zm1598 1745l-347 1041 -1072 0 872 631 -347 1019 889 -631 879 624 -338 -1012 883 -631 -1083 0 -336 -1041zm1457 4403l-424 -1272 -455 -335 536 1609 343 -2zm5302 -2364c0,-700 234,-1303 704,-1808 547,-588 1314,-882 2302,-882 799,0 1494,264 2087,791 592,529 888,1164 888,1905 0,734 -298,1352 -894,1857 -595,503 -1296,755 -2102,755l-662 0 0 1377 -2323 0 0 -3995zm2985 -1240l-221 673 -736 0 600 441 -232 694 589 -420 599 420 -231 -694 599 -441 -736 0 -231 -673zm-662 2050l0 1556 336 0 0 -1819 -336 263zm8556 -3248l-242 0 0 2502 242 0 0 -2502zm-2533 2659l0 -2911 2701 0 0 2754 305 -936 315 936 200 0 0 -2754 2649 0 0 5308 -2649 0 0 -431c-175,150 -312,247 -410,291 -203,92 -476,140 -820,140 -679,0 -1226,-203 -1639,-610 -435,-427 -652,-1023 -652,-1787zm3006 -683l-221 683 -725 0 589 442 -232 693 589 -420 599 431 -231 -701 599 -445 -725 0 -242 -683zm9650 -2849l-232 694 -725 0 589 431 -221 694 589 -431 599 431 -231 -694 588 -431 -725 0 -231 -694zm210 2103l0 1040 336 0 0 -1040 -336 0zm-242 -3774c827,0 1535,259 2123,778 589,518 883,1149 883,1892l0 4930 -2428 0 0 -2449 -294 0 -967 2449 -3038 0 1398 -3238c-210,-245 -377,-513 -499,-804 -123,-291 -184,-587 -184,-888 0,-736 292,-1365 878,-1887 585,-522 1294,-783 2128,-783zm-1934 4657l-245 -149 -1309 2924 378 0 1176 -2775z"/>
   <polygon class="fil1" points="13,8968 34716,8968 34716,9337 13,9337 "/>
  </g>
 </g>
</svg>
