<!-- Generated by IcoMoon.io -->
<svg version="1.1" xmlns="http://www.w3.org/2000/svg" width="512" height="512" viewBox="0 0 512 512">
<title></title>
<g id="icomoon-ignore">
</g>
<path fill="#000" d="M508.158 158.833c-3.742-5.137-9.75-8.206-16.072-8.206h-306.165c-4.564 0-8.258 3.698-8.258 8.258 0 4.561 3.694 8.258 8.258 8.258h306.165c1.072 0 2.065 0.512 2.725 1.411 0.661 0.911 0.854 2.101 0.516 3.202l-45.928 148.647c-1.839 5.936-7.17 9.919-13.267 9.919h-265.469c-6.782 0-12.63-4.693-14.226-11.404l-60.597-255.361c-1.943-8.25-9.193-14.013-17.629-14.013h-69.952c-4.565 0-8.258 3.698-8.258 8.258s3.693 8.258 8.258 8.258h69.952c0.725 0 1.379 0.54 1.555 1.298l60.606 255.365c3.363 14.202 15.822 24.113 30.291 24.113h265.469c13.388 0 25.057-8.661 29.041-21.557l45.928-148.643c1.878-6.044 0.774-12.705-2.944-17.806z"></path>
<path fill="#000" d="M236.010 264.258c-4.565 0-8.258 3.694-8.258 8.258s3.693 8.258 8.258 8.258h172.115c4.564 0 8.258-3.694 8.258-8.258s-3.694-8.258-8.258-8.258h-172.115z"></path>
<path fill="#000" d="M433.592 222.968c0-4.56-3.693-8.258-8.258-8.258h-206.534c-4.565 0-8.258 3.698-8.258 8.258s3.693 8.258 8.258 8.258h206.534c4.565 0 8.258-3.698 8.258-8.258z"></path>
<path fill="#000" d="M239.486 379.872c-22.767 0-41.291 18.524-41.291 41.291s18.524 41.291 41.291 41.291c22.766 0 41.291-18.524 41.291-41.291s-18.524-41.291-41.291-41.291zM239.486 445.938c-13.661 0-24.774-11.113-24.774-24.774s11.113-24.774 24.774-24.774 24.774 11.113 24.774 24.774-11.113 24.774-24.774 24.774z"></path>
<path fill="#000" d="M371.616 379.872c-22.767 0-41.291 18.524-41.291 41.291s18.524 41.291 41.291 41.291c22.766 0 41.291-18.524 41.291-41.291s-18.524-41.291-41.291-41.291zM371.616 445.938c-13.661 0-24.774-11.113-24.774-24.774s11.113-24.774 24.774-24.774 24.774 11.113 24.774 24.774-11.113 24.774-24.774 24.774z"></path>
</svg>
