<!-- Generated by IcoMoon.io -->
<svg version="1.1" xmlns="http://www.w3.org/2000/svg" width="512" height="512" viewBox="0 0 512 512">
<title></title>
<g id="icomoon-ignore">
</g>
<path d="M465.255 196.442c0 37.060-7.721 77.384-30.599 113.667-68.949 107.062-156.2 205.32-156.2 205.32s-100.324-94.812-164.411-207.26c-16.059-35.081-26.56-72.228-26.56-109.415 0-104.536 84.541-195.326 188.887-195.326 104.346 0.023 188.887 88.501 188.887 193.013zM391.008 188.801c0-62.441-50.57-112.954-112.931-112.954s-112.931 50.49-112.931 112.954c0 62.4 50.571 112.907 112.931 112.907s112.931-50.507 112.931-112.907z"></path>
</svg>
