<!-- Generated by IcoMoon.io -->
<svg version="1.1" xmlns="http://www.w3.org/2000/svg" width="512" height="512" viewBox="0 0 512 512">
<title></title>
<g id="icomoon-ignore">
</g>
<path fill="#000" d="M261.975 111.075c-169.495 0-256 153.345-256 153.345s121.647 128.603 256 128.603 256-128.603 256-128.603-86.522-153.345-256-153.345zM246.995 270.704l-12.638 12.639c-9.263-5.889-16.203-14.79-20.284-25.121l13.999-13.982c1.601 11.639 8.73 21.523 18.923 26.464zM192.982 239.677c0 38.087 30.889 69.028 68.994 69.028s68.993-30.941 68.993-69.028c0-23.589-11.897-44.406-29.995-56.855 18.803 2.875 37.019 7.593 54.306 13.465 6.147 13.207 9.676 27.859 9.676 43.39 0 56.889-46.111 102.982-102.982 102.982s-102.999-46.111-102.999-102.982c0-15.151 3.357-29.512 9.246-42.46 17.166-6.198 35.452-11.296 54.667-14.326-18.044 12.448-29.908 33.231-29.908 56.785zM125.899 215.674c-1.36 7.8-2.221 15.79-2.221 24.002 0 37.553 14.997 71.525 39.257 96.439-50.243-21.901-89.811-54.392-108.681-71.697 13.93-12.81 39.189-31.888 71.645-48.745zM359.257 337.941c25.31-25.053 40.997-59.816 40.997-98.264 0-8.901-0.93-17.579-2.514-26.017 36.296 17.321 64.93 37.466 79.462 50.776-19.353 17.769-63.552 51.586-117.945 73.505z"></path>
</svg>
