<!-- Generated by IcoMoon.io -->
<svg version="1.1" xmlns="http://www.w3.org/2000/svg" width="512" height="512" viewBox="0 0 512 512">
<title></title>
<g id="icomoon-ignore">
</g>
<path fill="#000" d="M0.138 77.55l71.336-71.358c9.827-9.806 25.599-7.436 33.672 3.838l61.004 85.002c8.095 11.275 5.879 27.771-3.948 37.576l-51.989 52.010c25.907 36.15 57.669 75.197 99.809 117.357 42.161 42.139 81.186 73.903 117.357 99.81l51.988-51.988c9.827-9.805 27.091-11.275 38.366-3.18l83.839 59.841c11.275 8.073 14.038 24.239 4.212 34.067l-71.358 71.358c0 0-123.5 10.837-284.336-149.977-160.791-160.857-149.955-284.357-149.955-284.357z"></path>
</svg>
