<!-- Generated by IcoMoon.io -->
<svg version="1.1" xmlns="http://www.w3.org/2000/svg" width="512" height="512" viewBox="0 0 512 512">
<title></title>
<g id="icomoon-ignore">
</g>
<path d="M508.829 446.787l-128.093-128.114c20.833-32.274 33.145-70.606 33.145-111.837 0-114.081-92.877-206.893-206.935-206.893-114.102 0-206.893 92.811-206.893 206.893 0 114.102 92.79 206.913 206.893 206.913 41.208 0 79.519-12.247 111.837-33.102l128.093 128.092c4.25 4.271 11.288 4.271 15.515 0l46.461-46.461c4.271-4.25 4.271-11.223-0.022-15.494zM65.736 206.838c0-77.818 63.328-141.19 141.19-141.19s141.19 63.349 141.19 141.19c0 77.862-63.305 141.19-141.19 141.19-77.841 0.022-141.19-63.327-141.19-141.19z"></path>
</svg>
