<!-- Generated by IcoMoon.io -->
<svg version="1.1" xmlns="http://www.w3.org/2000/svg" width="512" height="512" viewBox="0 0 512 512">
<title></title>
<g id="icomoon-ignore">
</g>
<path fill="#000" d="M192 405.334c0 11.776-9.558 21.334-21.334 21.334s-21.334-9.558-21.334-21.334v-213.333c0-11.776 9.558-21.333 21.334-21.333s21.334 9.558 21.334 21.334v213.334zM277.334 405.334c0 11.776-9.558 21.334-21.334 21.334s-21.334-9.558-21.334-21.334v-213.333c0-11.776 9.558-21.333 21.334-21.333s21.334 9.558 21.334 21.334v213.334zM362.666 405.334c0 11.776-9.558 21.334-21.334 21.334s-21.334-9.558-21.334-21.334v-213.333c0-11.776 9.558-21.333 21.334-21.333s21.334 9.558 21.334 21.334v213.334zM469.334 42.666v42.666h-426.666v-42.666h121.834c19.2 0 34.794-23.445 34.794-42.666h113.386c0 19.221 15.574 42.666 34.794 42.666h121.856zM405.334 128v341.334h-298.666v-341.334h-42.666v384h384v-384h-42.666z"></path>
</svg>
